<svg width="375" height="157" viewBox="0 0 375 157" fill="none" xmlns="http://www.w3.org/2000/svg">
<path d="M85.2927 3.89998V43.6796M85.2927 43.6796H118.832M85.2927 43.6796L70.4729 58.4995V86.5792L32.1997 125.632M32.1997 125.632V135.772M32.1997 125.632H21.2798M1 133.432V156.052H24.3998M120.392 53.0395V64.7394H300.571M334.891 11.6999L324.751 1.56H256.112V11.6999M334.891 11.6999H256.112M334.891 11.6999H362.191L373.89 26.5198L364.531 36.6597H256.112V11.6999" stroke="white" stroke-width="1.55999"/>
<path d="M90.7527 0H282.631V37.4397H90.7527V0Z" fill="#0F969C"/>
<path d="M126.632 29.6397L317.731 29.6397V46.7996L299.791 57.7195H126.632V29.6397Z" fill="white"/>
<rect x="6.18872" y="130.055" width="21.8398" height="21.8398" fill="#6DA5C0"/>
<rect x="12.4287" y="136.295" width="9.35992" height="9.35992" fill="white"/>
</svg>
