<svg width="512" height="210" viewBox="0 0 512 210" fill="none" xmlns="http://www.w3.org/2000/svg">
<path d="M25.918 59.5246H56.8524L103.672 12.7049H166.377V89.623M433.082 1H501.639L510 11.8689L501.639 21.9016M501.639 188.279L509.164 197.475L501.639 208.344H431.41" stroke="white" stroke-width="1.67213"/>
<path d="M173.902 13.541V45.3114M173.902 203.328V191.623M173.902 87.1147L162.197 98.8196M173.902 87.1147V102.164M173.902 87.1147V45.3114M173.902 102.164L162.197 113.869M173.902 102.164V117.213M173.902 117.213L162.197 128.918M173.902 117.213V131.426M173.902 131.426L162.197 143.131M173.902 131.426V146.475M173.902 146.475L162.197 158.18M173.902 146.475V161.525M173.902 161.525L162.197 173.229M173.902 161.525V175.738M173.902 175.738L162.197 187.443M173.902 175.738V191.623M173.902 191.623L162.197 203.328M173.902 45.3114H367.033M375.394 45.3114H417.197M423.885 45.3114H447.295M455.656 45.3114H471.541M306 199.984H489.098M478.23 45.3114H492.443V92.9672" stroke="white" stroke-width="5.01639"/>
<path d="M173.902 13.541V45.3114M173.902 203.328V191.623M173.902 87.1147L162.197 98.8196M173.902 87.1147V102.164M173.902 87.1147V45.3114M173.902 102.164L162.197 113.869M173.902 102.164V117.213M173.902 117.213L162.197 128.918M173.902 117.213V131.426M173.902 131.426L162.197 143.131M173.902 131.426V146.475M173.902 146.475L162.197 158.18M173.902 146.475V161.525M173.902 161.525L162.197 173.229M173.902 161.525V175.738M173.902 175.738L162.197 187.443M173.902 175.738V191.623M173.902 191.623L162.197 203.328M173.902 45.3114H367.033M375.394 45.3114H417.197M423.885 45.3114H447.295M455.656 45.3114H471.541M306 199.984H489.098M478.23 45.3114H492.443V92.9672" stroke="url(#paint0_linear_22_277)" stroke-width="5.01639"/>
<path d="M14.2131 52.8361L20.7296 56.5984V64.1229L14.2131 67.8852L7.69658 64.1229V56.5984L14.2131 52.8361Z" fill="#6DA5C0"/>
<path d="M24.8496 54.2188V66.501L14.2129 72.6426L3.57617 66.501V54.2188L14.2129 48.0782L24.8496 54.2188Z" stroke="white" stroke-width="3.34426"/>
<path d="M188.115 57.0164L192.295 52.8361H200.656V69.5574H183.934V61.1967L188.115 57.0164Z" fill="white"/>
<path d="M211.525 57.0164L215.705 52.8361H224.066V69.5574H207.344V61.1967L211.525 57.0164Z" fill="white"/>
<path d="M234.934 57.0164L239.115 52.8361H247.475V69.5574H230.754V61.1967L234.934 57.0164Z" fill="white"/>
<path d="M258.344 57.0164L262.525 52.8361H270.885V69.5574H254.164V61.1967L258.344 57.0164Z" fill="#0F969C"/>
<path d="M281.754 57.0164L285.934 52.8361H294.295V69.5574H277.574V61.1967L281.754 57.0164Z" fill="#0F969C"/>
<path d="M305.164 57.0164L309.344 52.8361H317.705V69.5574H300.984V61.1967L305.164 57.0164Z" fill="#0F969C"/>
<path d="M328.574 57.0164L332.754 52.8361H341.115V69.5574H324.393V61.1967L328.574 57.0164Z" fill="#0F969C"/>
<path d="M351.984 57.0164L356.164 52.8361H364.525V69.5574H347.803V61.1967L351.984 57.0164Z" fill="#0F969C"/>
<path d="M375.393 57.0164L379.574 52.8361H387.934V69.5574H371.213V61.1967L375.393 57.0164Z" fill="#0F969C"/>
<path d="M398.803 57.0164L402.984 52.8361H411.344V69.5574H394.623V61.1967L398.803 57.0164Z" fill="#0F969C"/>
<path d="M422.213 57.0164L426.393 52.8361H434.754V69.5574H418.033V61.1967L422.213 57.0164Z" fill="#0F969C"/>
<path d="M445.623 57.0164L449.803 52.8361H458.164V69.5574H441.443V61.1967L445.623 57.0164Z" fill="#0F969C"/>
<path d="M469.033 57.0164L473.213 52.8361H481.574V69.5574H464.852V61.1967L469.033 57.0164Z" fill="#0F969C"/>
<defs>
<linearGradient id="paint0_linear_22_277" x1="474.885" y1="35.2787" x2="389.607" y2="133.098" gradientUnits="userSpaceOnUse">
<stop stop-color="#072E33"/>
<stop offset="1" stop-color="white"/>
</linearGradient>
</defs>
</svg>
